<svg width="37" height="46" viewBox="0 0 37 46" fill="none" xmlns="http://www.w3.org/2000/svg">
<path d="M18.3333 0L18.6015 0.0160416C19.113 0.0763671 19.5893 0.307265 19.9535 0.671484C20.3177 1.0357 20.5486 1.512 20.609 2.02354L20.625 2.29167V11.4583L20.6365 11.8021C20.7185 12.8933 21.1882 13.9192 21.9607 14.6942C22.7332 15.4693 23.7576 15.9424 24.8485 16.0279L25.2083 16.0417H34.375L34.6431 16.0577C35.1547 16.118 35.631 16.3489 35.9952 16.7132C36.3594 17.0774 36.5903 17.5537 36.6506 18.0652L36.6667 18.3333V38.9583C36.6668 40.7119 35.9968 42.3993 34.7937 43.6752C33.5907 44.9511 31.9456 45.719 30.195 45.8219L29.7917 45.8333H6.875C5.12139 45.8334 3.43403 45.1634 2.15815 43.9604C0.882276 42.7574 0.114337 41.1123 0.0114586 39.3617L1.06802e-08 38.9583V6.875C-9.76748e-05 5.12139 0.669912 3.43403 1.87294 2.15815C3.07597 0.882276 4.72108 0.114337 6.47167 0.0114586L6.875 0H18.3333Z" fill="#B0A4E4"/>
<path d="M34.375 11.4583H25.2083L25.2061 2.28931L34.375 11.4583Z" fill="#B0A4E4"/>
</svg>
